<?xml version="1.0" standalone="no"?>
<!DOCTYPE svg PUBLIC "-//W3C//DTD SVG 20010904//EN"
 "http://www.w3.org/TR/2001/REC-SVG-20010904/DTD/svg10.dtd">
<svg version="1.0" xmlns="http://www.w3.org/2000/svg"
 width="180.000000pt" height="180.000000pt" viewBox="0 0 180.000000 180.000000"
 preserveAspectRatio="xMidYMid meet">
<metadata>
Created by potrace 1.11, written by Peter Selinger 2001-2013
</metadata>
<g transform="translate(0.000000,180.000000) scale(0.100000,-0.100000)"
fill="#000000" stroke="none">
<path d="M885 1496 c-77 -25 -131 -60 -205 -135 -113 -113 -190 -278 -206
-439 l-7 -73 -66 -47 c-207 -147 -291 -212 -279 -217 7 -2 45 -10 83 -18 39
-8 70 -19 70 -24 0 -6 -62 -55 -137 -109 -136 -95 -138 -98 -138 -135 l0 -37
87 24 c49 13 111 31 138 39 53 15 207 59 265 75 19 6 78 22 130 36 88 25 100
26 163 16 130 -23 230 -9 352 49 118 55 235 189 235 268 0 27 -31 111 -40 111
-3 0 -17 -24 -32 -52 -53 -109 -170 -204 -275 -224 -73 -14 -131 21 -147 88
-6 25 -3 27 47 38 166 39 305 147 370 288 27 60 31 77 31 162 0 81 -3 102 -24
145 -29 59 -93 126 -141 148 -83 38 -196 48 -274 23z m109 -204 c-10 -92 -37
-188 -75 -269 -21 -46 -41 -83 -44 -83 -17 0 20 190 56 290 47 126 73 153 63
62z"/>
</g>
</svg>
